<?xml version="1.0" standalone="no"?>
<!DOCTYPE svg PUBLIC "-//W3C//DTD SVG 20010904//EN"
 "http://www.w3.org/TR/2001/REC-SVG-20010904/DTD/svg10.dtd">
<svg version="1.0" xmlns="http://www.w3.org/2000/svg"
 width="753.000000pt" height="753.000000pt" viewBox="0 0 753.000000 753.000000"
 preserveAspectRatio="xMidYMid meet">
<metadata>
Created by potrace 1.14, written by Peter Selinger 2001-2017
</metadata>
<g transform="translate(0.000000,753.000000) scale(0.100000,-0.100000)"
fill="#000000" stroke="none">
<path d="M2244 7434 c-291 -46 -425 -211 -433 -529 -9 -381 186 -554 655 -580
49 -3 130 -7 179 -10 134 -7 247 -15 275 -20 14 -2 45 -7 70 -10 25 -3 86 -13
135 -21 50 -9 104 -18 120 -20 60 -10 312 -76 419 -111 338 -108 695 -284 996
-489 243 -166 490 -384 684 -604 55 -63 103 -117 106 -120 3 -3 35 -43 71 -90
305 -400 520 -822 659 -1297 36 -122 89 -357 105 -463 4 -25 9 -52 10 -60 6
-31 17 -122 20 -158 12 -144 15 -188 20 -273 19 -363 204 -555 545 -564 234
-6 378 38 491 150 77 76 124 184 143 325 14 98 6 346 -19 610 -25 268 -127
723 -216 960 -12 30 -22 62 -24 70 -2 8 -15 44 -28 80 -160 416 -388 826 -658
1186 -229 305 -462 552 -794 843 -65 57 -256 203 -370 283 -302 212 -545 347
-945 526 -62 28 -309 119 -400 148 -82 27 -276 84 -300 89 -8 2 -55 13 -105
25 -199 48 -435 88 -625 106 -292 28 -667 36 -786 18z"/>
<path d="M2348 5605 c-2 -2 -25 -5 -53 -8 -87 -10 -118 -19 -201 -57 -189 -87
-285 -263 -287 -525 0 -139 21 -224 79 -312 63 -95 197 -178 339 -209 60 -14
137 -24 214 -29 47 -3 102 -8 121 -10 19 -3 55 -7 80 -10 25 -3 56 -7 70 -10
14 -3 39 -7 57 -10 18 -3 83 -18 145 -34 630 -163 1106 -590 1333 -1196 61
-163 113 -392 130 -570 3 -33 8 -86 11 -117 11 -120 69 -263 134 -335 40 -45
121 -98 184 -122 86 -32 153 -40 291 -37 107 3 145 8 212 30 175 56 281 163
334 336 20 64 23 97 24 230 0 134 -8 281 -20 354 -24 141 -37 213 -50 267 -9
35 -18 72 -20 82 -18 79 -100 314 -141 407 -365 814 -1057 1407 -1994 1708
-147 47 -350 98 -495 123 -38 6 -79 13 -90 15 -11 2 -40 7 -65 10 -25 3 -56 7
-70 10 -62 10 -266 24 -272 19z"/>
<path d="M378 5564 c-207 -48 -320 -204 -352 -485 -7 -58 -14 -238 -16 -400
-5 -456 -3 -2210 4 -2534 6 -286 8 -321 26 -420 5 -27 12 -64 15 -81 10 -60
57 -209 96 -306 147 -359 407 -667 737 -875 81 -51 125 -74 257 -133 93 -42
279 -96 370 -106 28 -4 53 -8 57 -10 11 -7 184 -18 278 -18 82 0 213 9 255 17
11 3 43 8 70 12 28 5 52 9 55 10 3 1 21 5 40 9 129 29 328 103 445 166 346
187 639 490 795 825 180 388 222 756 136 1200 -28 147 -128 395 -220 545 -100
164 -272 363 -401 465 -27 22 -52 43 -55 46 -3 3 -48 33 -100 68 -182 121
-437 232 -615 266 -181 36 -433 50 -570 32 -27 -4 -70 -9 -95 -13 -82 -10
-272 -55 -384 -90 -61 -20 -117 -36 -125 -37 -13 -2 -15 83 -17 608 -1 552 -5
717 -18 781 -2 12 -7 38 -10 58 -10 60 -46 158 -78 211 -60 100 -170 172 -296
195 -78 14 -209 11 -284 -6z m1672 -2785 c436 -119 681 -564 544 -988 -154
-471 -714 -681 -1139 -426 -84 51 -152 111 -217 193 -187 236 -220 540 -88
808 164 330 552 508 900 413z"/>
</g>
</svg>
