<?xml version="1.0" encoding="UTF-8" standalone="no"?><svg xmlns="http://www.w3.org/2000/svg" xmlns:xlink= "http://www.w3.org/1999/xlink" width="600" height="390" aria-label="A chart." style="overflow: hidden;"><defs id="_ABSTRACT_RENDERER_ID_1"><filter id="_ABSTRACT_RENDERER_ID_2"><feGaussianBlur in="SourceAlpha" stdDeviation="2"></feGaussianBlur><feOffset dx="1" dy="1"></feOffset><feComponentTransfer><feFuncA type="linear" slope="0.1"></feFuncA></feComponentTransfer><feMerge><feMergeNode></feMergeNode><feMergeNode in="SourceGraphic"></feMergeNode></feMerge></filter></defs><rect x="0" y="0" width="600" height="390" stroke="none" stroke-width="0" fill="#ffffff"></rect><g><text text-anchor="start" x="115" y="52.05" font-family="Arial" font-size="13" font-weight="bold" stroke="none" stroke-width="0" fill="#000000">Mathematics</text><rect x="115" y="41" width="371" height="13" stroke="none" stroke-width="0" fill-opacity="0" fill="#ffffff"></rect></g><g><rect x="365" y="75" width="121" height="55" stroke="none" stroke-width="0" fill-opacity="0" fill="#ffffff"></rect><g column-id="P&amp;S,"><rect x="365" y="75" width="121" height="13" stroke="none" stroke-width="0" fill-opacity="0" fill="#ffffff"></rect><g><text text-anchor="start" x="383" y="86.05" font-family="Arial" font-size="13" stroke="none" stroke-width="0" fill="#222222">P&amp;S,</text></g><circle cx="371.5" cy="81.5" r="6.5" stroke="none" stroke-width="0" fill="#3366cc"></circle></g><g column-id="Calculus,"><rect x="365" y="96" width="121" height="13" stroke="none" stroke-width="0" fill-opacity="0" fill="#ffffff"></rect><g><text text-anchor="start" x="383" y="107.05" font-family="Arial" font-size="13" stroke="none" stroke-width="0" fill="#222222">Calculus,</text></g><circle cx="371.5" cy="102.5" r="6.5" stroke="none" stroke-width="0" fill="#dc3912"></circle></g><g column-id="Linear"><rect x="365" y="117" width="121" height="13" stroke="none" stroke-width="0" fill-opacity="0" fill="#ffffff"></rect><g><text text-anchor="start" x="383" y="128.05" font-family="Arial" font-size="13" stroke="none" stroke-width="0" fill="#222222">Linear</text></g><circle cx="371.5" cy="123.5" r="6.5" stroke="none" stroke-width="0" fill="#ff9900"></circle></g></g><g><path d="M230,184.6L230,207.4L121.5795571423525,179.21765011300477L121.5795571423525,156.41765011300475" stroke="#bf7300" stroke-width="1" fill="#bf7300"></path><path d="M230,184.6L121.5795571423525,156.41765011300475A114,91.2,0,0,1,230,93.39999999999999L230,184.6A0,0,0,0,0,230,184.6" stroke="#ff9900" stroke-width="1" fill="#ff9900"></path><text text-anchor="start" x="166.20796369940814" y="135.0222514395889" font-family="Arial" font-size="13" stroke="none" stroke-width="0" fill="#ffffff">20%</text></g><g><path d="M162.99248123865806,258.3823498869952L162.99248123865806,281.1823498869952A114,91.2,0,0,1,116,207.4L116,184.6A114,91.2,0,0,0,162.99248123865806,258.3823498869952" stroke="#a52b0e" stroke-width="1" fill="#a52b0e"></path><path d="M230,184.6L230,207.4L162.99248123865806,281.1823498869952L162.99248123865806,258.3823498869952" stroke="#a52b0e" stroke-width="1" fill="#a52b0e"></path><path d="M230,184.6L162.99248123865806,258.3823498869952A114,91.2,0,0,1,121.5795571423525,156.41765011300475L230,184.6A0,0,0,0,0,230,184.6" stroke="#dc3912" stroke-width="1" fill="#dc3912"></path><text text-anchor="start" x="135.24329543183364" y="209.71765578771726" font-family="Arial" font-size="13" stroke="none" stroke-width="0" fill="#ffffff">20%</text></g><g><path d="M344,184.6L344,207.4A114,91.2,0,0,1,162.99248123865806,281.1823498869952L162.99248123865806,258.3823498869952A114,91.2,0,0,0,344,184.6" stroke="#264d99" stroke-width="1" fill="#264d99"></path><path d="M230,184.6L230,93.39999999999999A114,91.2,0,1,1,162.99248123865806,258.3823498869952L230,184.6A0,0,0,1,0,230,184.6" stroke="#3366cc" stroke-width="1" fill="#3366cc"></path><text text-anchor="start" x="298.75670456816636" y="209.71765578771723" font-family="Arial" font-size="13" stroke="none" stroke-width="0" fill="#ffffff">60%</text></g><g></g></svg>