<?xml version="1.0" encoding="utf-8" standalone="no"?>
<!DOCTYPE svg PUBLIC "-//W3C//DTD SVG 1.1//EN"
  "http://www.w3.org/Graphics/SVG/1.1/DTD/svg11.dtd">
<!-- Created with matplotlib (https://matplotlib.org/) -->
<svg height="345.6pt" version="1.1" viewBox="0 0 460.8 345.6" width="460.8pt" xmlns="http://www.w3.org/2000/svg" xmlns:xlink="http://www.w3.org/1999/xlink">
 <metadata>
  <rdf:RDF xmlns:cc="http://creativecommons.org/ns#" xmlns:dc="http://purl.org/dc/elements/1.1/" xmlns:rdf="http://www.w3.org/1999/02/22-rdf-syntax-ns#">
   <cc:Work>
    <dc:type rdf:resource="http://purl.org/dc/dcmitype/StillImage"/>
    <dc:date>2021-12-10T11:08:57.441839</dc:date>
    <dc:format>image/svg+xml</dc:format>
    <dc:creator>
     <cc:Agent>
      <dc:title>Matplotlib v3.3.4, https://matplotlib.org/</dc:title>
     </cc:Agent>
    </dc:creator>
   </cc:Work>
  </rdf:RDF>
 </metadata>
 <defs>
  <style type="text/css">*{stroke-linecap:butt;stroke-linejoin:round;}</style>
 </defs>
 <g id="figure_1">
  <g id="patch_1">
   <path d="M 0 345.6 
L 460.8 345.6 
L 460.8 0 
L 0 0 
z
" style="fill:#ffffff;"/>
  </g>
  <g id="axes_1">
   <g id="patch_2">
    <path d="M 57.6 307.584 
L 414.72 307.584 
L 414.72 41.472 
L 57.6 41.472 
z
" style="fill:#ffffff;"/>
   </g>
   <g id="PathCollection_1">
    <defs>
     <path d="M 0 3 
C 0.795609 3 1.55874 2.683901 2.12132 2.12132 
C 2.683901 1.55874 3 0.795609 3 0 
C 3 -0.795609 2.683901 -1.55874 2.12132 -2.12132 
C 1.55874 -2.683901 0.795609 -3 0 -3 
C -0.795609 -3 -1.55874 -2.683901 -2.12132 -2.12132 
C -2.683901 -1.55874 -3 -0.795609 -3 0 
C -3 0.795609 -2.683901 1.55874 -2.12132 2.12132 
C -1.55874 2.683901 -0.795609 3 0 3 
z
" id="m310cc89e66" style="stroke:#1f77b4;"/>
    </defs>
    <g clip-path="url(#p4caa1f25f9)">
     <use style="fill:#1f77b4;stroke:#1f77b4;" x="254.479719" xlink:href="#m310cc89e66" y="165.828291"/>
     <use style="fill:#1f77b4;stroke:#1f77b4;" x="207.205424" xlink:href="#m310cc89e66" y="200.551273"/>
     <use style="fill:#1f77b4;stroke:#1f77b4;" x="148.106056" xlink:href="#m310cc89e66" y="236.067899"/>
     <use style="fill:#1f77b4;stroke:#1f77b4;" x="214.399167" xlink:href="#m310cc89e66" y="188.432409"/>
     <use style="fill:#1f77b4;stroke:#1f77b4;" x="362.088164" xlink:href="#m310cc89e66" y="84.765815"/>
     <use style="fill:#1f77b4;stroke:#1f77b4;" x="358.300175" xlink:href="#m310cc89e66" y="84.583441"/>
     <use style="fill:#1f77b4;stroke:#1f77b4;" x="365.421056" xlink:href="#m310cc89e66" y="75.306564"/>
     <use style="fill:#1f77b4;stroke:#1f77b4;" x="193.698408" xlink:href="#m310cc89e66" y="203.340885"/>
     <use style="fill:#1f77b4;stroke:#1f77b4;" x="337.485715" xlink:href="#m310cc89e66" y="97.584876"/>
     <use style="fill:#1f77b4;stroke:#1f77b4;" x="181.027575" xlink:href="#m310cc89e66" y="224.972875"/>
     <use style="fill:#1f77b4;stroke:#1f77b4;" x="272.926323" xlink:href="#m310cc89e66" y="143.409012"/>
     <use style="fill:#1f77b4;stroke:#1f77b4;" x="155.981068" xlink:href="#m310cc89e66" y="225.494663"/>
     <use style="fill:#1f77b4;stroke:#1f77b4;" x="235.551296" xlink:href="#m310cc89e66" y="178.13173"/>
     <use style="fill:#1f77b4;stroke:#1f77b4;" x="325.279169" xlink:href="#m310cc89e66" y="110.901271"/>
     <use style="fill:#1f77b4;stroke:#1f77b4;" x="216.672538" xlink:href="#m310cc89e66" y="181.402186"/>
     <use style="fill:#1f77b4;stroke:#1f77b4;" x="125.568122" xlink:href="#m310cc89e66" y="251.654458"/>
     <use style="fill:#1f77b4;stroke:#1f77b4;" x="234.458971" xlink:href="#m310cc89e66" y="172.105169"/>
     <use style="fill:#1f77b4;stroke:#1f77b4;" x="238.4737" xlink:href="#m310cc89e66" y="171.697591"/>
     <use style="fill:#1f77b4;stroke:#1f77b4;" x="232.422248" xlink:href="#m310cc89e66" y="178.085209"/>
     <use style="fill:#1f77b4;stroke:#1f77b4;" x="243.743031" xlink:href="#m310cc89e66" y="171.461496"/>
     <use style="fill:#1f77b4;stroke:#1f77b4;" x="304.85911" xlink:href="#m310cc89e66" y="123.009206"/>
     <use style="fill:#1f77b4;stroke:#1f77b4;" x="151.733901" xlink:href="#m310cc89e66" y="231.964606"/>
     <use style="fill:#1f77b4;stroke:#1f77b4;" x="73.832727" xlink:href="#m310cc89e66" y="295.488"/>
     <use style="fill:#1f77b4;stroke:#1f77b4;" x="245.184295" xlink:href="#m310cc89e66" y="171.891943"/>
     <use style="fill:#1f77b4;stroke:#1f77b4;" x="187.376776" xlink:href="#m310cc89e66" y="209.544475"/>
     <use style="fill:#1f77b4;stroke:#1f77b4;" x="105.996603" xlink:href="#m310cc89e66" y="265.851719"/>
     <use style="fill:#1f77b4;stroke:#1f77b4;" x="251.297082" xlink:href="#m310cc89e66" y="161.459065"/>
     <use style="fill:#1f77b4;stroke:#1f77b4;" x="183.576381" xlink:href="#m310cc89e66" y="217.503202"/>
     <use style="fill:#1f77b4;stroke:#1f77b4;" x="341.138965" xlink:href="#m310cc89e66" y="95.737203"/>
     <use style="fill:#1f77b4;stroke:#1f77b4;" x="298.208437" xlink:href="#m310cc89e66" y="133.78776"/>
     <use style="fill:#1f77b4;stroke:#1f77b4;" x="177.798222" xlink:href="#m310cc89e66" y="207.887323"/>
     <use style="fill:#1f77b4;stroke:#1f77b4;" x="247.052076" xlink:href="#m310cc89e66" y="168.432091"/>
     <use style="fill:#1f77b4;stroke:#1f77b4;" x="254.789271" xlink:href="#m310cc89e66" y="166.129844"/>
     <use style="fill:#1f77b4;stroke:#1f77b4;" x="288.856988" xlink:href="#m310cc89e66" y="138.173828"/>
     <use style="fill:#1f77b4;stroke:#1f77b4;" x="288.403065" xlink:href="#m310cc89e66" y="138.20834"/>
     <use style="fill:#1f77b4;stroke:#1f77b4;" x="308.712508" xlink:href="#m310cc89e66" y="127.544601"/>
     <use style="fill:#1f77b4;stroke:#1f77b4;" x="282.152878" xlink:href="#m310cc89e66" y="144.222831"/>
     <use style="fill:#1f77b4;stroke:#1f77b4;" x="244.239178" xlink:href="#m310cc89e66" y="168.675533"/>
     <use style="fill:#1f77b4;stroke:#1f77b4;" x="198.640319" xlink:href="#m310cc89e66" y="200.709268"/>
     <use style="fill:#1f77b4;stroke:#1f77b4;" x="135.459562" xlink:href="#m310cc89e66" y="246.562374"/>
     <use style="fill:#1f77b4;stroke:#1f77b4;" x="173.997392" xlink:href="#m310cc89e66" y="218.484894"/>
     <use style="fill:#1f77b4;stroke:#1f77b4;" x="321.015641" xlink:href="#m310cc89e66" y="99.151426"/>
     <use style="fill:#1f77b4;stroke:#1f77b4;" x="200.630236" xlink:href="#m310cc89e66" y="199.964375"/>
     <use style="fill:#1f77b4;stroke:#1f77b4;" x="109.950909" xlink:href="#m310cc89e66" y="268.387055"/>
     <use style="fill:#1f77b4;stroke:#1f77b4;" x="158.361096" xlink:href="#m310cc89e66" y="235.620325"/>
     <use style="fill:#1f77b4;stroke:#1f77b4;" x="323.893693" xlink:href="#m310cc89e66" y="99.401904"/>
     <use style="fill:#1f77b4;stroke:#1f77b4;" x="161.692874" xlink:href="#m310cc89e66" y="228.059566"/>
     <use style="fill:#1f77b4;stroke:#1f77b4;" x="233.139048" xlink:href="#m310cc89e66" y="170.285515"/>
     <use style="fill:#1f77b4;stroke:#1f77b4;" x="180.114197" xlink:href="#m310cc89e66" y="210.504509"/>
     <use style="fill:#1f77b4;stroke:#1f77b4;" x="247.284965" xlink:href="#m310cc89e66" y="164.417113"/>
     <use style="fill:#1f77b4;stroke:#1f77b4;" x="286.324017" xlink:href="#m310cc89e66" y="139.422676"/>
     <use style="fill:#1f77b4;stroke:#1f77b4;" x="189.128005" xlink:href="#m310cc89e66" y="204.619822"/>
     <use style="fill:#1f77b4;stroke:#1f77b4;" x="314.137103" xlink:href="#m310cc89e66" y="115.335732"/>
     <use style="fill:#1f77b4;stroke:#1f77b4;" x="145.729052" xlink:href="#m310cc89e66" y="241.466823"/>
     <use style="fill:#1f77b4;stroke:#1f77b4;" x="250.363165" xlink:href="#m310cc89e66" y="169.195864"/>
     <use style="fill:#1f77b4;stroke:#1f77b4;" x="148.878459" xlink:href="#m310cc89e66" y="238.350785"/>
     <use style="fill:#1f77b4;stroke:#1f77b4;" x="176.705074" xlink:href="#m310cc89e66" y="222.159819"/>
     <use style="fill:#1f77b4;stroke:#1f77b4;" x="191.337175" xlink:href="#m310cc89e66" y="195.791497"/>
     <use style="fill:#1f77b4;stroke:#1f77b4;" x="154.283145" xlink:href="#m310cc89e66" y="236.667644"/>
     <use style="fill:#1f77b4;stroke:#1f77b4;" x="260.418712" xlink:href="#m310cc89e66" y="159.561555"/>
     <use style="fill:#1f77b4;stroke:#1f77b4;" x="236.844513" xlink:href="#m310cc89e66" y="177.798809"/>
     <use style="fill:#1f77b4;stroke:#1f77b4;" x="320.218849" xlink:href="#m310cc89e66" y="112.720546"/>
     <use style="fill:#1f77b4;stroke:#1f77b4;" x="275.40191" xlink:href="#m310cc89e66" y="137.929258"/>
     <use style="fill:#1f77b4;stroke:#1f77b4;" x="283.444199" xlink:href="#m310cc89e66" y="141.162301"/>
     <use style="fill:#1f77b4;stroke:#1f77b4;" x="237.948776" xlink:href="#m310cc89e66" y="176.799881"/>
     <use style="fill:#1f77b4;stroke:#1f77b4;" x="212.950169" xlink:href="#m310cc89e66" y="186.33287"/>
     <use style="fill:#1f77b4;stroke:#1f77b4;" x="226.505218" xlink:href="#m310cc89e66" y="174.042012"/>
     <use style="fill:#1f77b4;stroke:#1f77b4;" x="247.333719" xlink:href="#m310cc89e66" y="163.048811"/>
     <use style="fill:#1f77b4;stroke:#1f77b4;" x="208.296465" xlink:href="#m310cc89e66" y="189.875113"/>
     <use style="fill:#1f77b4;stroke:#1f77b4;" x="298.879417" xlink:href="#m310cc89e66" y="127.653746"/>
     <use style="fill:#1f77b4;stroke:#1f77b4;" x="243.294714" xlink:href="#m310cc89e66" y="170.225183"/>
     <use style="fill:#1f77b4;stroke:#1f77b4;" x="249.828516" xlink:href="#m310cc89e66" y="173.291132"/>
     <use style="fill:#1f77b4;stroke:#1f77b4;" x="252.431326" xlink:href="#m310cc89e66" y="165.029342"/>
     <use style="fill:#1f77b4;stroke:#1f77b4;" x="398.487273" xlink:href="#m310cc89e66" y="53.568"/>
     <use style="fill:#1f77b4;stroke:#1f77b4;" x="241.108512" xlink:href="#m310cc89e66" y="159.693622"/>
     <use style="fill:#1f77b4;stroke:#1f77b4;" x="304.252674" xlink:href="#m310cc89e66" y="118.888113"/>
     <use style="fill:#1f77b4;stroke:#1f77b4;" x="352.143948" xlink:href="#m310cc89e66" y="91.924221"/>
     <use style="fill:#1f77b4;stroke:#1f77b4;" x="255.362249" xlink:href="#m310cc89e66" y="161.467227"/>
     <use style="fill:#1f77b4;stroke:#1f77b4;" x="224.952752" xlink:href="#m310cc89e66" y="182.480339"/>
     <use style="fill:#1f77b4;stroke:#1f77b4;" x="285.359027" xlink:href="#m310cc89e66" y="142.570489"/>
     <use style="fill:#1f77b4;stroke:#1f77b4;" x="266.636957" xlink:href="#m310cc89e66" y="148.605251"/>
     <use style="fill:#1f77b4;stroke:#1f77b4;" x="277.884923" xlink:href="#m310cc89e66" y="140.524806"/>
     <use style="fill:#1f77b4;stroke:#1f77b4;" x="264.859797" xlink:href="#m310cc89e66" y="155.795746"/>
     <use style="fill:#1f77b4;stroke:#1f77b4;" x="180.173848" xlink:href="#m310cc89e66" y="210.984382"/>
     <use style="fill:#1f77b4;stroke:#1f77b4;" x="208.109097" xlink:href="#m310cc89e66" y="196.667333"/>
     <use style="fill:#1f77b4;stroke:#1f77b4;" x="335.082712" xlink:href="#m310cc89e66" y="104.718569"/>
     <use style="fill:#1f77b4;stroke:#1f77b4;" x="245.138991" xlink:href="#m310cc89e66" y="167.42706"/>
     <use style="fill:#1f77b4;stroke:#1f77b4;" x="123.497075" xlink:href="#m310cc89e66" y="265.509434"/>
     <use style="fill:#1f77b4;stroke:#1f77b4;" x="206.378799" xlink:href="#m310cc89e66" y="185.603925"/>
     <use style="fill:#1f77b4;stroke:#1f77b4;" x="214.995408" xlink:href="#m310cc89e66" y="186.963524"/>
     <use style="fill:#1f77b4;stroke:#1f77b4;" x="285.930369" xlink:href="#m310cc89e66" y="135.95553"/>
     <use style="fill:#1f77b4;stroke:#1f77b4;" x="318.04418" xlink:href="#m310cc89e66" y="114.75599"/>
     <use style="fill:#1f77b4;stroke:#1f77b4;" x="270.039489" xlink:href="#m310cc89e66" y="155.661699"/>
     <use style="fill:#1f77b4;stroke:#1f77b4;" x="154.486683" xlink:href="#m310cc89e66" y="232.487585"/>
     <use style="fill:#1f77b4;stroke:#1f77b4;" x="258.330643" xlink:href="#m310cc89e66" y="159.518943"/>
     <use style="fill:#1f77b4;stroke:#1f77b4;" x="162.929219" xlink:href="#m310cc89e66" y="228.338751"/>
     <use style="fill:#1f77b4;stroke:#1f77b4;" x="248.853736" xlink:href="#m310cc89e66" y="171.357272"/>
     <use style="fill:#1f77b4;stroke:#1f77b4;" x="203.967146" xlink:href="#m310cc89e66" y="193.092043"/>
     <use style="fill:#1f77b4;stroke:#1f77b4;" x="234.086846" xlink:href="#m310cc89e66" y="184.760426"/>
     <use style="fill:#1f77b4;stroke:#1f77b4;" x="316.459482" xlink:href="#m310cc89e66" y="110.858998"/>
    </g>
   </g>
   <g id="matplotlib.axis_1">
    <g id="xtick_1">
     <g id="line2d_1">
      <defs>
       <path d="M 0 0 
L 0 3.5 
" id="mb1ccb3db16" style="stroke:#000000;stroke-width:0.8;"/>
      </defs>
      <g>
       <use style="stroke:#000000;stroke-width:0.8;" x="103.265777" xlink:href="#mb1ccb3db16" y="307.584"/>
      </g>
     </g>
     <g id="text_1">
      <!-- −2 -->
      <g transform="translate(95.894683 322.182437)scale(0.1 -0.1)">
       <defs>
        <path d="M 10.59375 35.5 
L 73.1875 35.5 
L 73.1875 27.203125 
L 10.59375 27.203125 
z
" id="DejaVuSans-8722"/>
        <path d="M 19.1875 8.296875 
L 53.609375 8.296875 
L 53.609375 0 
L 7.328125 0 
L 7.328125 8.296875 
Q 12.9375 14.109375 22.625 23.890625 
Q 32.328125 33.6875 34.8125 36.53125 
Q 39.546875 41.84375 41.421875 45.53125 
Q 43.3125 49.21875 43.3125 52.78125 
Q 43.3125 58.59375 39.234375 62.25 
Q 35.15625 65.921875 28.609375 65.921875 
Q 23.96875 65.921875 18.8125 64.3125 
Q 13.671875 62.703125 7.8125 59.421875 
L 7.8125 69.390625 
Q 13.765625 71.78125 18.9375 73 
Q 24.125 74.21875 28.421875 74.21875 
Q 39.75 74.21875 46.484375 68.546875 
Q 53.21875 62.890625 53.21875 53.421875 
Q 53.21875 48.921875 51.53125 44.890625 
Q 49.859375 40.875 45.40625 35.40625 
Q 44.1875 33.984375 37.640625 27.21875 
Q 31.109375 20.453125 19.1875 8.296875 
z
" id="DejaVuSans-50"/>
       </defs>
       <use xlink:href="#DejaVuSans-8722"/>
       <use x="83.789062" xlink:href="#DejaVuSans-50"/>
      </g>
     </g>
    </g>
    <g id="xtick_2">
     <g id="line2d_2">
      <g>
       <use style="stroke:#000000;stroke-width:0.8;" x="168.28727" xlink:href="#mb1ccb3db16" y="307.584"/>
      </g>
     </g>
     <g id="text_2">
      <!-- −1 -->
      <g transform="translate(160.916176 322.182437)scale(0.1 -0.1)">
       <defs>
        <path d="M 12.40625 8.296875 
L 28.515625 8.296875 
L 28.515625 63.921875 
L 10.984375 60.40625 
L 10.984375 69.390625 
L 28.421875 72.90625 
L 38.28125 72.90625 
L 38.28125 8.296875 
L 54.390625 8.296875 
L 54.390625 0 
L 12.40625 0 
z
" id="DejaVuSans-49"/>
       </defs>
       <use xlink:href="#DejaVuSans-8722"/>
       <use x="83.789062" xlink:href="#DejaVuSans-49"/>
      </g>
     </g>
    </g>
    <g id="xtick_3">
     <g id="line2d_3">
      <g>
       <use style="stroke:#000000;stroke-width:0.8;" x="233.308763" xlink:href="#mb1ccb3db16" y="307.584"/>
      </g>
     </g>
     <g id="text_3">
      <!-- 0 -->
      <g transform="translate(230.127513 322.182437)scale(0.1 -0.1)">
       <defs>
        <path d="M 31.78125 66.40625 
Q 24.171875 66.40625 20.328125 58.90625 
Q 16.5 51.421875 16.5 36.375 
Q 16.5 21.390625 20.328125 13.890625 
Q 24.171875 6.390625 31.78125 6.390625 
Q 39.453125 6.390625 43.28125 13.890625 
Q 47.125 21.390625 47.125 36.375 
Q 47.125 51.421875 43.28125 58.90625 
Q 39.453125 66.40625 31.78125 66.40625 
z
M 31.78125 74.21875 
Q 44.046875 74.21875 50.515625 64.515625 
Q 56.984375 54.828125 56.984375 36.375 
Q 56.984375 17.96875 50.515625 8.265625 
Q 44.046875 -1.421875 31.78125 -1.421875 
Q 19.53125 -1.421875 13.0625 8.265625 
Q 6.59375 17.96875 6.59375 36.375 
Q 6.59375 54.828125 13.0625 64.515625 
Q 19.53125 74.21875 31.78125 74.21875 
z
" id="DejaVuSans-48"/>
       </defs>
       <use xlink:href="#DejaVuSans-48"/>
      </g>
     </g>
    </g>
    <g id="xtick_4">
     <g id="line2d_4">
      <g>
       <use style="stroke:#000000;stroke-width:0.8;" x="298.330256" xlink:href="#mb1ccb3db16" y="307.584"/>
      </g>
     </g>
     <g id="text_4">
      <!-- 1 -->
      <g transform="translate(295.149006 322.182437)scale(0.1 -0.1)">
       <use xlink:href="#DejaVuSans-49"/>
      </g>
     </g>
    </g>
    <g id="xtick_5">
     <g id="line2d_5">
      <g>
       <use style="stroke:#000000;stroke-width:0.8;" x="363.351749" xlink:href="#mb1ccb3db16" y="307.584"/>
      </g>
     </g>
     <g id="text_5">
      <!-- 2 -->
      <g transform="translate(360.170499 322.182437)scale(0.1 -0.1)">
       <use xlink:href="#DejaVuSans-50"/>
      </g>
     </g>
    </g>
   </g>
   <g id="matplotlib.axis_2">
    <g id="ytick_1">
     <g id="line2d_6">
      <defs>
       <path d="M 0 0 
L -3.5 0 
" id="m3bb1cb3658" style="stroke:#000000;stroke-width:0.8;"/>
      </defs>
      <g>
       <use style="stroke:#000000;stroke-width:0.8;" x="57.6" xlink:href="#m3bb1cb3658" y="276.333278"/>
      </g>
     </g>
     <g id="text_6">
      <!-- −200 -->
      <g transform="translate(23.132812 280.132497)scale(0.1 -0.1)">
       <use xlink:href="#DejaVuSans-8722"/>
       <use x="83.789062" xlink:href="#DejaVuSans-50"/>
       <use x="147.412109" xlink:href="#DejaVuSans-48"/>
       <use x="211.035156" xlink:href="#DejaVuSans-48"/>
      </g>
     </g>
    </g>
    <g id="ytick_2">
     <g id="line2d_7">
      <g>
       <use style="stroke:#000000;stroke-width:0.8;" x="57.6" xlink:href="#m3bb1cb3658" y="226.225611"/>
      </g>
     </g>
     <g id="text_7">
      <!-- −100 -->
      <g transform="translate(23.132812 230.02483)scale(0.1 -0.1)">
       <use xlink:href="#DejaVuSans-8722"/>
       <use x="83.789062" xlink:href="#DejaVuSans-49"/>
       <use x="147.412109" xlink:href="#DejaVuSans-48"/>
       <use x="211.035156" xlink:href="#DejaVuSans-48"/>
      </g>
     </g>
    </g>
    <g id="ytick_3">
     <g id="line2d_8">
      <g>
       <use style="stroke:#000000;stroke-width:0.8;" x="57.6" xlink:href="#m3bb1cb3658" y="176.117944"/>
      </g>
     </g>
     <g id="text_8">
      <!-- 0 -->
      <g transform="translate(44.2375 179.917162)scale(0.1 -0.1)">
       <use xlink:href="#DejaVuSans-48"/>
      </g>
     </g>
    </g>
    <g id="ytick_4">
     <g id="line2d_9">
      <g>
       <use style="stroke:#000000;stroke-width:0.8;" x="57.6" xlink:href="#m3bb1cb3658" y="126.010277"/>
      </g>
     </g>
     <g id="text_9">
      <!-- 100 -->
      <g transform="translate(31.5125 129.809495)scale(0.1 -0.1)">
       <use xlink:href="#DejaVuSans-49"/>
       <use x="63.623047" xlink:href="#DejaVuSans-48"/>
       <use x="127.246094" xlink:href="#DejaVuSans-48"/>
      </g>
     </g>
    </g>
    <g id="ytick_5">
     <g id="line2d_10">
      <g>
       <use style="stroke:#000000;stroke-width:0.8;" x="57.6" xlink:href="#m3bb1cb3658" y="75.902609"/>
      </g>
     </g>
     <g id="text_10">
      <!-- 200 -->
      <g transform="translate(31.5125 79.701828)scale(0.1 -0.1)">
       <use xlink:href="#DejaVuSans-50"/>
       <use x="63.623047" xlink:href="#DejaVuSans-48"/>
       <use x="127.246094" xlink:href="#DejaVuSans-48"/>
      </g>
     </g>
    </g>
   </g>
   <g id="patch_3">
    <path d="M 57.6 307.584 
L 57.6 41.472 
" style="fill:none;stroke:#000000;stroke-linecap:square;stroke-linejoin:miter;stroke-width:0.8;"/>
   </g>
   <g id="patch_4">
    <path d="M 414.72 307.584 
L 414.72 41.472 
" style="fill:none;stroke:#000000;stroke-linecap:square;stroke-linejoin:miter;stroke-width:0.8;"/>
   </g>
   <g id="patch_5">
    <path d="M 57.6 307.584 
L 414.72 307.584 
" style="fill:none;stroke:#000000;stroke-linecap:square;stroke-linejoin:miter;stroke-width:0.8;"/>
   </g>
   <g id="patch_6">
    <path d="M 57.6 41.472 
L 414.72 41.472 
" style="fill:none;stroke:#000000;stroke-linecap:square;stroke-linejoin:miter;stroke-width:0.8;"/>
   </g>
  </g>
 </g>
 <defs>
  <clipPath id="p4caa1f25f9">
   <rect height="266.112" width="357.12" x="57.6" y="41.472"/>
  </clipPath>
 </defs>
</svg>
